<?xml version="1.0" encoding="utf-8"?>
<!-- Generator: Adobe Illustrator 27.5.0, SVG Export Plug-In . SVG Version: 6.00 Build 0)  -->
<svg version="1.1" xmlns="http://www.w3.org/2000/svg" xmlns:xlink="http://www.w3.org/1999/xlink" x="0px" y="0px"
	 viewBox="0 0 500 500" style="enable-background:new 0 0 500 500;" xml:space="preserve">
<g id="BACKGROUND">
	<rect style="fill:#FEFEFE;" width="500" height="500"/>
</g>
<g id="OBJECTS">
	<g>
		<g>
			<path style="fill:#DADFFE;" d="M106.739,333.065c2.294-15.699,6.478-33.271,19.246-42.689
				c22.539-16.624,43.417-56.875,43.579-67.78c0.27-18.093,0.399-83.399,4.871-95.268c6.953-18.458,18.864-36.206,37.538-42.557
				c40.808-13.877,67.403,14.729,73.429,32.492c6.025,17.763,5.815,36.928,7.899,55.569c2.083,18.641,7.192,38.2,21.039,50.852
				c22.559,20.611,62.322,15.758,81.486,39.558c38.857,48.258,22.869,147.265,3.754,178.813
				c-2.639,4.356-208.294,8.46-263.992,4.709c-15.652-1.054-21.628,2.044-24.67-11.709
				C107.43,419.292,104.445,348.764,106.739,333.065z"/>
			<g>
				<g>
					<g>
						<path style="fill:#FF9D9C;" d="M367.431,216.527c-0.881-3.762-4.609-6.683-5.276-11.016
							c-0.484-3.145,2.097-16.635,4.09-16.464c1.993,0.171,3.133,6.506,2.243,8.297c0.643-4.322,6.258-14.329,9.167-17.589
							c2.909-3.26,4.982-6.237,8-3.078c2.772,2.901,1.386,10.769,0.43,14.666c-2.113,8.606-9.096,15.618-6.93,31.287
							c0.53,3.832-1.689,2.569-5.278,4.009C367.328,229.266,368.427,220.779,367.431,216.527z"/>
						<path style="fill:#3E4BAF;" d="M370.917,276.28c1.61,0.47-4.089-46.68-6.594-60.462c5.718,0.235,11.436,0.47,17.154,0.705
							c12.299,28.841,28.073,58.214,28.231,89.567c0.067,13.299-12.008,16.962-15.681,17.633c-34.7,6.333-74.695,4.475-87.667-2.333
							c-9.616-5.047-18.239-21-17.498-35.963c0.48-9.701-0.044-40.573,15.063-36.388
							C319.871,253.454,355.049,271.596,370.917,276.28z"/>
						<g>
							<g>
								<path style="fill:#484DCD;" d="M373.883,283.526c1.515,2.504,3.029,5.008,4.544,7.512c1.35,2.231,2.572,4.694,4.431,6.545
									c0.552,0.549,1.613-0.001,1.352-0.787c-0.829-2.491-2.469-4.674-3.866-6.879c-1.567-2.474-3.134-4.947-4.7-7.421
									C374.944,281.393,373.2,282.397,373.883,283.526L373.883,283.526z"/>
							</g>
							<g>
								<path style="fill:#484DCD;" d="M376.327,278.349c6.619,3.474,12.332,8.128,18.714,11.919
									c0.625,0.371,1.262-0.478,0.767-0.994c-5.068-5.283-12.256-8.965-18.747-12.18
									C376.228,276.682,375.493,277.912,376.327,278.349L376.327,278.349z"/>
							</g>
						</g>
					</g>
					<g>
						<path style="fill:#FF9D9C;" d="M445.453,319.982c2.464-2.975,2.539-7.711,5.588-10.861c2.213-2.286,14.521-8.383,15.589-6.691
							c1.068,1.691-3.289,6.428-5.255,6.801c3.831-2.1,15.198-3.674,19.553-3.327c4.355,0.347,7.98,0.2,7.287,4.514
							c-0.636,3.962-7.742,7.613-11.424,9.206c-8.134,3.518-17.94,2.192-29.115,13.389c-2.733,2.738-3.068,0.207-6.384-1.782
							C435.242,327.599,442.668,323.345,445.453,319.982z"/>
						<path style="fill:#484DCD;" d="M361.742,376.56c6.616,3.101,23.706,9.115,27.401,7.304
							c20.916-10.251,66.093-49.714,65.551-52.414c-1.115-5.555-5.667-9.395-10.095-15.397
							c-15.634,10.691-55.644,24.635-57.657,23.963c-1.313-0.439-64.254-84.964-83.016-90.979
							c-35.816-11.482-25.462,57.48-10.354,81.018C304.891,347.691,331.453,362.365,361.742,376.56z"/>
						<g>
							<path style="fill:#3E4BAF;" d="M383.642,350.764c-0.552,2.458-0.989,4.933-1.277,7.437c-0.247,2.152-0.895,4.657,0.3,6.572
								c0.31,0.496,1.004,0.487,1.315,0c1.049-1.642,0.689-3.648,0.806-5.543c0.164-2.647,0.517-5.268,1.002-7.874
								C386.048,349.964,383.959,349.352,383.642,350.764L383.642,350.764z"/>
						</g>
						<g>
							<path style="fill:#3E4BAF;" d="M390.388,352.388c-0.326,4.958,0.149,11.43,3.738,15.226c0.557,0.589,1.45-0.032,1.293-0.753
								c-0.505-2.315-1.592-4.427-2.205-6.714c-0.682-2.544-0.944-5.128-0.904-7.76
								C392.329,351.141,390.468,351.164,390.388,352.388L390.388,352.388z"/>
						</g>
					</g>
					<g>
						<path style="fill:#FF9D9C;" d="M95.917,173.905c0.881-3.762,4.609-6.683,5.276-11.016c0.484-3.145-2.097-16.635-4.09-16.464
							c-1.993,0.171-3.133,6.505-2.243,8.297c-0.643-4.321-6.258-14.329-9.167-17.589c-2.909-3.26-4.982-6.237-8-3.078
							c-2.772,2.901-1.386,10.769-0.43,14.666c2.113,8.607,9.096,15.618,6.93,31.287c-0.53,3.832,1.689,2.569,5.278,4.009
							C96.021,186.644,94.921,178.157,95.917,173.905z"/>
						<path style="fill:#3E4BAF;" d="M116.956,254.551c-1.779,0.154-3.704,0.272-5.213-0.682c-1.544-0.976-2.402-2.78-2.849-4.551
							c-6.976-27.671-9.556-53.951-11.394-73.188c-4.85,0.594-11.623,1.332-16.473,1.925c-2.612,21.806-8.094,81.405-7.382,95.453
							c0.14,2.761,0.367,5.609,1.65,8.057c1.153,2.201,2.815,4.288,5.021,5.431c29.216,15.14,50.929,17.295,77.553,18.363
							c5.318,0.213,10.816-0.274,15.647-2.508c4.436-2.051,7.936-5.691,10.956-9.534c5.465-6.954,11.22-14.494,12.53-23.241
							c2.525-16.855,10.232-27.9-5.612-26.175C169.28,246.309,139.115,252.637,116.956,254.551z"/>
						<g>
							<g>
								<path style="fill:#484DCD;" d="M101.779,255.38c-2.659,1.137-5.333,2.271-8.059,3.237c-2.011,0.713-4.511,0.933-5.985,2.55
									c-0.458,0.502-0.292,1.365,0.409,1.547c2.363,0.615,5.054-0.958,7.227-1.856c2.578-1.065,5.053-2.269,7.45-3.697
									C103.993,256.462,102.966,254.873,101.779,255.38L101.779,255.38z"/>
							</g>
							<g>
								<path style="fill:#484DCD;" d="M104.204,260.902c-1.676,1.923-3.051,4.042-3.951,6.438c-0.711,1.894-1.81,4.621-0.389,6.352
									c0.318,0.387,0.929,0.294,1.26,0c1.336-1.189,1.16-3.616,1.678-5.272c0.7-2.24,1.784-4.268,3.188-6.142
									C106.76,261.251,105.048,259.933,104.204,260.902L104.204,260.902z"/>
							</g>
						</g>
					</g>
					<path style="fill:#484DCD;" d="M175.311,250.475c-6.526,5.793-7.238,15.564-7.436,24.288
						c-0.633,27.936-0.744,55.884-0.333,83.824c0.32,21.752,1.001,43.79,7.152,64.657c51.044,0.095,93.83,0.095,140.608-2.69
						c4.045-51.113-0.159-102.479-4.361-153.579c-0.297-3.613-2.846-16.546-7.016-17.938c-14.921-4.977-36.986-9.051-52.712-9.389
						c-8.119-0.174-16.206,0.911-24.255,1.994C212.03,243.65,187.441,240.077,175.311,250.475z"/>
					<g>
						<path style="fill:#FF9D9C;" d="M53.701,327.415c-2.346-3.069-2.236-7.804-5.16-11.071c-2.122-2.371-14.182-8.943-15.315-7.295
							c-1.133,1.648,3.036,6.551,4.985,7.001c-3.746-2.248-15.043-4.265-19.408-4.088c-4.365,0.177-7.981-0.112-7.458,4.226
							c0.481,3.983,7.439,7.909,11.056,9.645c7.99,3.833,17.841,2.891,28.57,14.515c2.623,2.842,3.057,0.327,6.448-1.531
							C63.607,335.425,56.353,330.884,53.701,327.415z"/>
						<path style="fill:#484DCD;" d="M116.197,338.819c-1.097,1.736-2.277,3.524-4.052,4.555
							c-1.912,1.11-59.107-22.625-59.784-21.407c-3.333,6-6.984,11.634-6.612,16.377c15.746,12.972,55.717,47.529,60.164,48.534
							c21.44,4.844,68.436-31.973,79.627-54.064c10.196-20.127,18.178-59.118,2.089-78.729c-17.6-21.454-41.507,31.759-47.43,42.499
							C132.38,310.763,124.853,325.122,116.197,338.819z"/>
						<g>
							<path style="fill:#3E4BAF;" d="M110.312,368.65c1.81-4.834,2.066-10.79,1.243-15.846c-0.178-1.092-2.001-0.841-1.934,0.262
								c0.322,5.265-0.115,9.949-0.869,15.154C108.604,369.241,109.94,369.642,110.312,368.65L110.312,368.65z"/>
						</g>
						<g>
							<path style="fill:#3E4BAF;" d="M117.106,352.393c-0.314,2.597,0.276,5.446,0.902,7.965c0.568,2.285,1.14,4.886,2.764,6.65
								c0.512,0.556,1.628,0.147,1.56-0.646c-0.196-2.298-1.381-4.421-1.995-6.646c-0.687-2.488-0.896-5.071-1.575-7.547
								C118.494,351.186,117.214,351.499,117.106,352.393L117.106,352.393z"/>
						</g>
					</g>
					<g>
						<g>
							<path style="fill:#3E4BAF;" d="M197.583,256.674c5.672,23.402,40.429,34.056,60.051,22.12
								c0.864-0.525,0.309-2.055-0.713-1.692c-10.673,3.791-20.577,5.692-31.761,2.454c-11.757-3.404-21.908-11.599-26.018-23.312
								C198.801,255.27,197.336,255.652,197.583,256.674L197.583,256.674z"/>
						</g>
						<g>
							<path style="fill:#3E4BAF;" d="M170.201,342.381c-0.432-16.19,0.372-32.515-0.368-48.668c-0.057-1.246-1.824-1.226-1.922,0
								c-1.276,15.994-0.041,32.675,0.93,48.668C168.894,343.247,170.224,343.262,170.201,342.381L170.201,342.381z"/>
						</g>
						<g>
							<path style="fill:#3E4BAF;" d="M318.139,321.699c-0.341-7.326-1.387-14.648-2.17-21.938
								c-0.711-6.619-0.696-13.86-2.49-20.267c-0.275-0.983-1.711-0.76-1.749,0.237c-0.278,7.148,1.587,14.835,2.494,21.938
								c0.858,6.724,1.502,13.523,2.764,20.186C317.111,322.503,318.169,322.356,318.139,321.699L318.139,321.699z"/>
						</g>
						<g>
							<path style="fill:#3E4BAF;" d="M198.996,289.016c10.628,7.915,22.392,14.032,35.018,18.077
								c6.514,2.087,13.207,3.6,19.981,4.544c5.651,0.788,11.98,1.794,17.636,0.81c0.943-0.164,0.959-1.771,0-1.921
								c-5.682-0.889-11.579-0.493-17.321-1.219c-6.681-0.845-13.292-2.299-19.729-4.27c-12.481-3.822-24.212-9.743-34.828-17.315
								C198.961,287.155,198.235,288.449,198.996,289.016L198.996,289.016z"/>
						</g>
						<g>
							<path style="fill:#3E4BAF;" d="M206.33,321.033c7.19,5.364,15,9.875,23.476,12.857c1.014,0.357,1.743-1.319,0.74-1.756
								c-8.176-3.564-15.987-7.522-23.353-12.578C206.272,318.923,205.466,320.388,206.33,321.033L206.33,321.033z"/>
						</g>
					</g>
					<g>
						<path style="fill:#F28B8B;" d="M213.693,230.055c-1.04,6.638-3.014,12.569-9.732,12.696
							c-1.649,7.111,0.775,16.735,5.862,21.971c13.873,14.278,41.245,16.265,56.465,3.433c13.363-11.266,4.084-26.772,4.084-26.772
							c-3.463-0.478-6.577-1.743-7.675-6.669c-2.152-9.653-4.103-19.351-6.157-29.026c-6.399,0.275-40.775-5.286-41.175-1.054
							C214.465,214.169,214.79,223.053,213.693,230.055z"/>
						<path style="fill:#FF9D9C;" d="M206.698,194.708c1.615,7.339,4.355,14.994,10.437,19.407
							c4.017,2.914,9.045,4.062,13.975,4.629c7.793,0.895,16.128,0.382,22.762-3.805c10.224-6.452,13.688-19.606,15.115-31.612
							c1.306-10.987,1.417-22.891-4.579-32.19c-8.438-13.087-26.887-16.684-41.773-12.116c-5.714,1.753-11.26,4.612-15.111,9.183
							C198.606,158.789,204.015,182.51,206.698,194.708z"/>
						<path style="fill:#100844;" d="M210.945,159.915c1.6-2.333,4.637-4.804,6.88-3.081c-1.878,3.396,1.092,8.321,4.973,8.243
							c4.688-0.094,7.425-5.69,11.929-6.992c-1.106,2.518,1.392,5.426,4.113,5.819c2.722,0.393,5.375-0.889,7.826-2.135
							c3.194-1.623,6.387-3.247,9.581-4.87c2.446-2.176,7.548,10.991,9.203,20.106c1.937,0.002,3.875,0.003,5.812,0.005
							c3.505-10.119,2.545-21.697-2.579-31.1c-2.436-4.47-6.235-8.727-11.271-9.475c-0.975-0.145-1.975-0.154-2.921-0.426
							c-1.788-0.514-3.17-1.893-4.705-2.944c-10.234-7.008-31.75-1.07-36.759,1.159c-5.009,2.228-10.152,6.978-12.195,12.066
							c-8.139,20.268,0.357,31.302,3.87,28.704C205.056,174.729,209.067,162.653,210.945,159.915z"/>
						<g>
							<path style="fill:#D16B6B;" d="M237.387,180.647c-0.773,2.372-0.727,4.765,0.418,7.004c0.545,1.065,1.262,2.02,2.012,2.948
								c0.835,1.035,1.109,1.428-0.068,2.463c-0.846,0.744-2.281,1.004-3.306,1.417c-0.88,0.355-0.876,1.846,0.243,1.795
								c2.109-0.095,6.416-1.365,6.476-4.111c0.025-1.154-0.875-1.873-1.549-2.692c-1.982-2.406-4.039-5.256-3.276-8.562
								C238.479,180.29,237.583,180.044,237.387,180.647L237.387,180.647z"/>
						</g>
						<g>
							<path style="fill:#100844;" d="M245.16,173.366c1.252-1.478,2.995-2.23,4.938-2.133c1.809,0.09,2.933,1.313,4.581,1.721
								c0.581,0.143,1.064-0.367,0.937-0.937c-0.519-2.33-3.727-3.009-5.775-2.942c-2.482,0.081-4.636,1.217-6.135,3.17
								C243.07,173.072,244.482,174.167,245.16,173.366L245.16,173.366z"/>
						</g>
						<g>
							<path style="fill:#100844;" d="M227.277,172.642c-1.499-1.953-3.653-3.089-6.135-3.17c-2.048-0.067-5.257,0.612-5.775,2.942
								c-0.127,0.57,0.356,1.081,0.937,0.937c1.653-0.408,2.768-1.63,4.581-1.721c1.943-0.097,3.685,0.654,4.938,2.133
								C226.494,174.556,227.92,173.479,227.277,172.642L227.277,172.642z"/>
						</g>
						<g>
							<path style="fill:#100844;" d="M221.693,181.492c3.137,0,3.142-4.875,0-4.875
								C218.556,176.617,218.551,181.492,221.693,181.492L221.693,181.492z"/>
						</g>
						<g>
							<path style="fill:#100844;" d="M249.693,180.516c1.287,0,2.52-1.132,2.461-2.461c-0.06-1.333-1.081-2.461-2.461-2.461
								c-1.287,0-2.52,1.132-2.461,2.461C247.292,179.388,248.314,180.516,249.693,180.516L249.693,180.516z"/>
						</g>
						<path style="fill:#FEFEFE;" d="M243.027,201.233c0.424,2.746-6.563,12.585-11.682,10.059
							c-5.606-2.767-4.826-10.783-3.983-14.343C228.528,197.123,239.396,200.663,243.027,201.233z"/>
						<g>
							<path style="fill:#FF9D9C;" d="M205.623,172.7c-1.812-1.135-5.618-1.925-7.224-0.514c-5.182,4.557-1.604,13.092,1.864,17.719
								c0.827,1.103,1.844,2.18,3.183,2.508c2.362,0.578,4.701-1.533,5.287-3.892C209.32,186.162,208.84,174.715,205.623,172.7z"/>
							<g>
								<path style="fill:#D16B6B;" d="M203.588,175.583c-6.751-0.729-4.659,11.188-0.128,12.69c0.48,0.159,0.772-0.469,0.467-0.803
									c-1.272-1.394-2.197-3.023-2.82-4.805c-0.775-2.215-0.851-6.115,2.48-5.886
									C204.364,176.832,204.338,175.665,203.588,175.583L203.588,175.583z"/>
							</g>
							<g>
								<path style="fill:#D16B6B;" d="M204.416,180.33c-1.597,0.967-2.208,3.98-0.256,4.924c0.437,0.211,1.08-0.258,0.738-0.738
									c-0.789-1.106-1.205-2.539,0.044-3.506C205.334,180.707,204.83,180.079,204.416,180.33L204.416,180.33z"/>
							</g>
						</g>
						<g>
							<path style="fill:#FF9D9C;" d="M267.121,172.7c1.812-1.135,5.618-1.925,7.224-0.514c5.182,4.557,1.604,13.092-1.864,17.719
								c-0.827,1.103-1.844,2.18-3.183,2.508c-2.362,0.578-4.701-1.533-5.287-3.892C263.424,186.162,263.904,174.715,267.121,172.7z
								"/>
							<g>
								<path style="fill:#D16B6B;" d="M269.157,176.779c3.352-0.23,3.251,3.683,2.48,5.886c-0.623,1.782-1.548,3.41-2.82,4.805
									c-0.305,0.334-0.013,0.962,0.467,0.803c4.534-1.503,6.622-13.419-0.128-12.69
									C268.407,175.665,268.379,176.832,269.157,176.779L269.157,176.779z"/>
							</g>
							<g>
								<path style="fill:#D16B6B;" d="M267.803,181.011c1.249,0.966,0.833,2.4,0.044,3.506c-0.342,0.479,0.301,0.949,0.738,0.738
									c1.952-0.945,1.341-3.958-0.256-4.924C267.919,180.082,267.406,180.704,267.803,181.011L267.803,181.011z"/>
							</g>
						</g>
						<g>
							<path style="fill:#F28B8B;" d="M214.661,192.856c1.158,0.367,2.332,0.446,3.537,0.552c1.219,0.106,2.39,0.308,3.593,0
								c1.213-0.31,2.099-1.519,2.099-2.757c0-1.344-0.912-2.295-2.099-2.757c-1.096-0.426-2.427-0.307-3.593-0.348
								c-1.219-0.044-2.331-0.02-3.537,0.203C211.94,188.252,212.351,192.124,214.661,192.856L214.661,192.856z"/>
						</g>
						<g>
							<path style="fill:#F28B8B;" d="M253.309,191.882c0.833,0.106,1.651,0.194,2.49,0.229c0.922,0.038,1.968,0.206,2.852-0.102
								c2.887-1.007,2.891-4.871,0-5.879c-0.878-0.306-1.934-0.14-2.852-0.102c-0.838,0.034-1.658,0.122-2.49,0.229
								c-1.507,0.192-2.813,1.155-2.813,2.813C250.496,190.749,251.795,191.689,253.309,191.882L253.309,191.882z"/>
						</g>
						<g>
							<path style="fill:#211A75;" d="M227.859,136.305c-4.116,0.192-8.462,2.252-11.994,4.247
								c-2.167,1.224-5.847,3.384-4.818,6.491c1.936,5.841,15.508,0.827,19.074-0.43c0.416-0.147,0.391-0.886-0.112-0.829
								c-2.41,0.274-4.795,0.696-7.184,1.111c-2.28,0.396-6.962,1.773-9.142,0.38c-3.239-2.071,2.99-5.123,4.561-5.917
								c2.873-1.452,6.335-3.072,9.615-3.224C229.03,138.079,229.037,136.25,227.859,136.305L227.859,136.305z"/>
						</g>
						<g>
							<path style="fill:#211A75;" d="M229.554,145.75c-2.912,3.134-2.302,8.188,2.621,5.526c1.291-0.698,2.318-1.774,3.538-2.567
								c0.622-0.405,1.756-1.658,2.675-1.091c0.304,0.188,0.132,1.396,0.402,1.713c1.026,1.202,1.252,1.767,3.167,1.199
								c2.583-0.766,1.657-2.498,3.063-3.843c1.605-1.535,3.079,2.379,5.101,3.065c4.921,1.67,7.777-3.222,5.227-7.135
								c-0.318-0.488-1.191-0.191-0.985,0.415c0.91,2.682-0.678,6.503-3.858,5.328c-1.16-0.429-1.202-1.027-2.009-1.819
								c-0.739-0.725-1.517-2.296-2.754-2.351c-2.171-0.096-1.598,2.065-2.369,3.325c-2.716,4.443-2.865-0.041-3.721-1.109
								c-0.48-0.6-0.782-0.809-1.562-0.895c-1.072-0.119-2.542,1.307-3.247,1.831c-0.727,0.541-1.426,1.118-2.167,1.64
								c-0.429,0.314-0.866,0.618-1.31,0.911c-1.609,1.264-1.909,0.187-0.9-3.231C231.006,146.042,230.123,145.138,229.554,145.75
								L229.554,145.75z"/>
						</g>
						<g>
							<path style="fill:#211A75;" d="M262.68,158.151c1.497-0.9,3.272-1.697,4.575-2.864c0.224-0.201-0.012-0.652-0.308-0.529
								c-1.618,0.675-3.101,1.923-4.563,2.887C262.072,157.851,262.354,158.347,262.68,158.151L262.68,158.151z"/>
						</g>
						<g>
							<path style="fill:#211A75;" d="M264.662,161.904c1.499-0.685,3.185-1.116,4.619-1.914c0.407-0.227,0.258-1.008-0.254-0.939
								c-1.71,0.229-3.409,1.108-4.968,1.821C263.36,161.192,263.966,162.222,264.662,161.904L264.662,161.904z"/>
						</g>
						<g>
							<path style="fill:#211A75;" d="M265.693,165.664c1.841-0.041,4.027,0.234,5.77-0.403c0.35-0.128,0.383-0.63,0-0.746
								c-1.78-0.536-3.93-0.137-5.77-0.07C264.912,164.474,264.906,165.682,265.693,165.664L265.693,165.664z"/>
						</g>
						<g>
							<path style="fill:#211A75;" d="M201.945,156.807c1.227,0.997,2.252,2.224,3.548,3.121c0.403,0.279,0.855-0.256,0.641-0.641
								c-0.792-1.426-2.194-2.429-3.494-3.381C202.119,155.523,201.438,156.395,201.945,156.807L201.945,156.807z"/>
						</g>
						<g>
							<path style="fill:#211A75;" d="M200.779,161.142c1.478,0.749,3.085,1.898,4.753,2.085c0.315,0.035,0.447-0.401,0.249-0.6
								c-1.14-1.148-3.042-1.691-4.493-2.355C200.708,160.007,200.194,160.846,200.779,161.142L200.779,161.142z"/>
						</g>
						<g>
							<path style="fill:#211A75;" d="M200.858,165.458c1.338-0.103,2.528,0.342,3.83,0.497c0.428,0.051,0.458-0.522,0.195-0.721
								c-1.16-0.874-2.781-0.689-4.091-0.26C200.542,165.056,200.567,165.48,200.858,165.458L200.858,165.458z"/>
						</g>
					</g>
				</g>
				<g>
					<path style="fill:#100844;" d="M66.198,419.055v39.333c0,3.682,2.985,6.667,6.667,6.667h354.271
						c3.682,0,6.667-2.985,6.667-6.667v-39.333H66.198z"/>
					<path style="fill:#211A75;" d="M439.171,419.055H60.829c-3.314,0-6,2.686-6,6c0,3.314,2.686,6,6,6h378.342c3.314,0,6-2.686,6-6
						C445.171,421.741,442.485,419.055,439.171,419.055z"/>
				</g>
				<g>
					<polygon style="fill:#D89A36;" points="352.578,410.508 215.281,410.508 245.281,325.895 378.86,325.895 382.578,328.106 					
						"/>
					<polygon style="fill:#FFC155;" points="353.362,410.508 219.651,410.508 248.867,328.106 382.578,328.106 					"/>
					<rect x="215.281" y="410.508" style="fill:#D89A36;" width="137.297" height="8.547"/>
					<path style="fill:#FFC155;" d="M167.3,419.055h47.981v-8.547h-43.677c-2.377,0-4.304,1.927-4.304,4.304V419.055z"/>
					<path style="fill:#FEFEFE;" d="M308.534,356.091c0,0-5.924-0.098-6.707,5.361c-0.417,2.906-0.993,6.06-3.098,8.107
						c-1.109,1.078-2.607,1.674-3.762,2.703c-1.154,1.029-1.903,2.861-0.987,4.107c0.457,0.622,1.215,0.937,1.944,1.188
						c2.995,1.031,6.288,1.466,9.337,0.605c3.049-0.86,5.79-3.181,6.585-6.248c0.757-2.921-0.257-6.175,0.928-8.95
						c0.437-1.024,1.159-1.933,1.407-3.018C314.837,357.09,312.11,355.582,308.534,356.091z"/>
				</g>
			</g>
		</g>
		<g>
			
				<rect x="406.663" y="172.441" transform="matrix(0.7071 -0.7071 0.7071 0.7071 -5.3717 365.0119)" style="fill:#E0993B;" width="62.518" height="33.098"/>
			
				<rect x="409.422" y="175.199" transform="matrix(0.7071 -0.7071 0.7071 0.7071 -5.3718 365.0119)" style="fill:#FFC155;" width="57.002" height="27.581"/>
			<circle style="fill:#FEFEFE;" cx="437.922" cy="188.99" r="11.033"/>
			<g>
				<path style="fill:#100844;" d="M437.096,181.252c-4.84-0.592-10.038,9.222-3.609,9.883c2.542,0.261,4.901-1.691,7.218-2.396
					c2.243-0.682,3.01,0.777,1.861,2.722c-1.092,1.848-2.882,2.739-4.779,3.527c-0.986,0.41-0.9,1.841,0.259,1.911
					c3.816,0.23,10.45-7.078,5.915-10.158c-1.906-1.294-4.447,0.02-6.276,0.791c-0.905,0.381-3.059,1.631-4.082,1.232
					c-3.335-1.301,3.025-5.541,3.914-5.961C438.351,182.408,437.814,181.34,437.096,181.252L437.096,181.252z"/>
			</g>
			<g>
				<path style="fill:#100844;" d="M430.532,182.752c2.192,2.777,4.71,5.277,7.166,7.818c2.025,2.094,3.903,4.653,6.28,6.337
					c0.831,0.589,1.735-0.53,1.315-1.315c-1.366-2.548-3.904-4.652-5.909-6.708c-2.463-2.527-4.89-5.109-7.493-7.491
					C430.956,180.538,429.78,181.8,430.532,182.752L430.532,182.752z"/>
			</g>
		</g>
		<g>
			<g>
				<rect x="383.671" y="56.263" style="fill:#FC6840;" width="67.561" height="90.389"/>
			</g>
			<g>
				<rect x="388.405" y="60.851" style="fill:#FEFEFE;" width="58.093" height="81.213"/>
			</g>
			<path style="fill:#484DCD;" d="M431.956,52.403h-4.498c-1.036-3.887-4.571-6.755-8.785-6.755c-4.214,0-7.749,2.868-8.785,6.755
				h-4.498c-0.829,0-1.501,0.672-1.501,1.501v11.044h29.567V53.904C433.457,53.075,432.785,52.403,431.956,52.403z"/>
			<g>
				<path style="fill:#FFC155;" d="M436.609,75.557h-38.124c-0.553,0-1-0.448-1-1c0-0.552,0.447-1,1-1h38.124c0.553,0,1,0.448,1,1
					C437.609,75.109,437.162,75.557,436.609,75.557z"/>
			</g>
			<g>
				<path style="fill:#FFC155;" d="M436.609,83.77h-38.124c-0.553,0-1-0.448-1-1c0-0.552,0.447-1,1-1h38.124c0.553,0,1,0.448,1,1
					C437.609,83.323,437.162,83.77,436.609,83.77z"/>
			</g>
			<g>
				<path style="fill:#FFC155;" d="M436.609,91.984h-38.124c-0.553,0-1-0.448-1-1c0-0.552,0.447-1,1-1h38.124c0.553,0,1,0.448,1,1
					C437.609,91.536,437.162,91.984,436.609,91.984z"/>
			</g>
			<g>
				<path style="fill:#FFC155;" d="M436.609,100.197h-38.124c-0.553,0-1-0.448-1-1c0-0.552,0.447-1,1-1h38.124c0.553,0,1,0.448,1,1
					C437.609,99.749,437.162,100.197,436.609,100.197z"/>
			</g>
			<g>
				<path style="fill:#FFC155;" d="M436.609,108.411h-38.124c-0.553,0-1-0.448-1-1c0-0.552,0.447-1,1-1h38.124c0.553,0,1,0.448,1,1
					C437.609,107.963,437.162,108.411,436.609,108.411z"/>
			</g>
			<g>
				<path style="fill:#FFC155;" d="M436.609,116.624h-38.124c-0.553,0-1-0.448-1-1c0-0.552,0.447-1,1-1h38.124c0.553,0,1,0.448,1,1
					C437.609,116.177,437.162,116.624,436.609,116.624z"/>
			</g>
			<g>
				<path style="fill:#FFC155;" d="M436.609,124.838h-38.124c-0.553,0-1-0.448-1-1c0-0.552,0.447-1,1-1h38.124c0.553,0,1,0.448,1,1
					C437.609,124.39,437.162,124.838,436.609,124.838z"/>
			</g>
			<g>
				<path style="fill:#FFC155;" d="M436.609,133.052h-38.124c-0.553,0-1-0.448-1-1c0-0.552,0.447-1,1-1h38.124c0.553,0,1,0.448,1,1
					C437.609,132.604,437.162,133.052,436.609,133.052z"/>
			</g>
		</g>
		<g>
			<path style="fill:#FC6840;" d="M120.798,103.986l-22.627,22.627c-2.473,2.473-6.483,2.473-8.957,0L44.431,81.83
				c-2.473-2.473-2.473-6.483,0-8.957l22.627-22.627c2.473-2.473,6.483-2.473,8.957,0l44.783,44.783
				C123.271,97.502,123.271,101.512,120.798,103.986z"/>
			
				<rect x="64.341" y="61.096" transform="matrix(0.7071 -0.7071 0.7071 0.7071 -38.3318 84.3172)" style="fill:#100844;" width="36.546" height="54.667"/>
			<path style="fill:#FEFEFE;" d="M107.127,108.935c1.106,1.106,1.106,2.9,0,4.007c-1.106,1.106-2.9,1.106-4.007,0
				c-1.107-1.106-1.107-2.9,0-4.007C104.227,107.829,106.021,107.829,107.127,108.935z"/>
			
				<rect x="53.829" y="64.144" transform="matrix(0.7071 -0.7071 0.7071 0.7071 -28.6175 60.8645)" style="fill:#FEFEFE;" width="10.667" height="1.667"/>
			<g>
				<path style="fill:#FEFEFE;" d="M80.375,100.952c3.934,0.126,7.861,0.261,11.785-0.129c0.933-0.093,0.935-1.36,0-1.453
					c-3.923-0.39-7.851-0.255-11.785-0.129C79.275,99.276,79.273,100.917,80.375,100.952L80.375,100.952z"/>
			</g>
			<g>
				<path style="fill:#FEFEFE;" d="M68.119,89.875c10.062,0.064,20.11,0.139,30.17-0.117c0.648-0.017,0.649-0.991,0-1.008
					c-10.059-0.256-20.108-0.181-30.17-0.117C67.319,88.638,67.318,89.87,68.119,89.875L68.119,89.875z"/>
			</g>
			<g>
				<path style="fill:#FEFEFE;" d="M76.84,81.365c2.873,0.094,5.624,0.055,8.485-0.234c0.768-0.078,0.769-1.118,0-1.195
					c-2.861-0.289-5.613-0.328-8.485-0.234C75.769,79.736,75.767,81.33,76.84,81.365L76.84,81.365z"/>
			</g>
		</g>
		<g>
			<g>
				<circle style="fill:#FC6840;" cx="40.545" cy="241.74" r="22.288"/>
				<circle style="fill:#DADFFE;" cx="40.545" cy="241.74" r="16.494"/>
				<g>
					<path style="fill:#FEFEFE;" d="M32.096,242.185c2.357,2.426,4.692,4.863,7.233,7.1c0.669,0.589,1.568-0.308,0.978-0.978
						c-2.237-2.541-4.674-4.876-7.1-7.233C32.481,240.369,31.391,241.458,32.096,242.185L32.096,242.185z"/>
				</g>
				<g>
					<path style="fill:#FEFEFE;" d="M34.162,235.118c3.897,4.373,8.068,8.832,12.589,12.556c0.666,0.549,1.494-0.278,0.945-0.945
						c-3.724-4.521-8.183-8.692-12.556-12.589C34.474,233.547,33.569,234.452,34.162,235.118L34.162,235.118z"/>
				</g>
				<g>
					<path style="fill:#FEFEFE;" d="M42.329,235.219c1.718,1.826,3.354,3.786,5.342,5.325c0.576,0.446,1.242-0.219,0.796-0.796
						c-1.539-1.987-3.499-3.623-5.325-5.342C42.602,233.899,41.821,234.679,42.329,235.219L42.329,235.219z"/>
				</g>
			</g>
			<rect x="36.462" y="262.141" style="fill:#FC6840;" width="8.167" height="9.584"/>
			<path style="fill:#100844;" d="M45.464,271.725h-9.838c-0.597,0-1.081,0.484-1.081,1.081v19.405c0,3.285,2.532,6.15,5.815,6.249
				c3.398,0.102,6.185-2.622,6.185-5.997v-19.657C46.545,272.209,46.061,271.725,45.464,271.725z"/>
		</g>
		<g>
			<path style="fill:#E0993B;" d="M173.572,43.809l24.295,24.295c0.722,0.722,1.051,1.676,1.003,2.623
				c-0.04,0.81-0.377,1.628-1.003,2.254l-36.832,36.832c-0.626,0.626-1.444,0.963-2.254,1.003c-0.947,0.048-1.901-0.281-2.623-1.003
				l-24.295-24.295c-0.666-0.666-1.003-1.532-1.011-2.406c-0.008-0.89,0.329-1.789,1.011-2.47l36.832-36.832
				c0.682-0.682,1.58-1.019,2.47-1.011C172.04,42.806,172.907,43.143,173.572,43.809z"/>
			<path style="fill:#F2B453;" d="M198.87,70.727c-0.04,0.81-0.377,1.628-1.003,2.254l-36.832,36.832
				c-0.626,0.626-1.444,0.963-2.254,1.003l3.321-26.95l1.075-8.743l8.743-1.075L198.87,70.727z"/>
			<path style="fill:#FFC155;" d="M171.166,42.798l0.754,31.249l0.077,3.225c0.089,3.72-2.95,6.759-6.67,6.67l-3.225-0.077
				l-31.249-0.754c-0.008-0.89,0.329-1.789,1.011-2.47l36.832-36.832C169.377,43.127,170.276,42.79,171.166,42.798z"/>
		</g>
		<g>
			<g>
				
					<ellipse transform="matrix(0.1617 -0.9868 0.9868 0.1617 142.3611 448.327)" style="fill:#FC6840;" cx="335.059" cy="140.372" rx="29.807" ry="29.807"/>
			</g>
			<g>
				<g>
					
						<ellipse transform="matrix(0.7071 -0.7071 0.7071 0.7071 -1.1213 278.0366)" style="fill:#DADFFE;" cx="335.059" cy="140.372" rx="22.822" ry="22.822"/>
				</g>
				<g>
					
						<rect x="338.776" y="138.418" transform="matrix(0.7071 -0.7071 0.7071 0.7071 -3.0751 282.7534)" style="fill:#FC6840;" width="2" height="13.341"/>
				</g>
				<g>
					<path style="fill:#211A75;" d="M335.059,141.872h-12.756c-0.828,0-1.5-0.671-1.5-1.5s0.672-1.5,1.5-1.5h11.256v-10.101
						c0-0.829,0.672-1.5,1.5-1.5c0.828,0,1.5,0.671,1.5,1.5v11.601C336.559,141.201,335.887,141.872,335.059,141.872z"/>
				</g>
			</g>
			<g>
				<g>
					<g>
						<path style="fill:#FC6840;" d="M335.059,123.009c-0.553,0-1-0.448-1-1v-2.199c0-0.552,0.447-1,1-1c0.553,0,1,0.448,1,1v2.199
							C336.059,122.561,335.612,123.009,335.059,123.009z"/>
					</g>
					<g>
						<path style="fill:#FC6840;" d="M335.059,161.934c-0.553,0-1-0.448-1-1v-2.199c0-0.552,0.447-1,1-1c0.553,0,1,0.448,1,1v2.199
							C336.059,161.487,335.612,161.934,335.059,161.934z"/>
					</g>
				</g>
				<g>
					<g>
						<path style="fill:#FC6840;" d="M355.622,141.372h-2.199c-0.553,0-1-0.448-1-1c0-0.552,0.447-1,1-1h2.199c0.553,0,1,0.448,1,1
							C356.622,140.924,356.174,141.372,355.622,141.372z"/>
					</g>
					<g>
						<path style="fill:#FC6840;" d="M316.696,141.372h-2.199c-0.553,0-1-0.448-1-1c0-0.552,0.447-1,1-1h2.199c0.553,0,1,0.448,1,1
							C317.696,140.924,317.249,141.372,316.696,141.372z"/>
					</g>
				</g>
			</g>
			<g>
				<g>
					<g>
						<path style="fill:#FC6840;" d="M335.059,123.668c-0.553,0-1-0.448-1-1v-3.035c0-0.552,0.447-1,1-1c0.553,0,1,0.448,1,1v3.035
							C336.059,123.22,335.612,123.668,335.059,123.668z"/>
					</g>
					<g>
						<path style="fill:#FC6840;" d="M335.059,162.111c-0.553,0-1-0.448-1-1v-3.035c0-0.552,0.447-1,1-1c0.553,0,1,0.448,1,1v3.035
							C336.059,161.663,335.612,162.111,335.059,162.111z"/>
					</g>
				</g>
				<g>
					<g>
						<path style="fill:#FC6840;" d="M355.797,141.372h-3.035c-0.553,0-1-0.448-1-1c0-0.552,0.447-1,1-1h3.035c0.553,0,1,0.448,1,1
							C356.797,140.924,356.35,141.372,355.797,141.372z"/>
					</g>
					<g>
						<path style="fill:#FC6840;" d="M317.356,141.372h-3.035c-0.553,0-1-0.448-1-1c0-0.552,0.447-1,1-1h3.035c0.553,0,1,0.448,1,1
							C318.356,140.924,317.909,141.372,317.356,141.372z"/>
					</g>
				</g>
			</g>
		</g>
		<g>
			<path style="fill:#3E4BAF;" d="M469.171,231.01h-36.226c-1.412,0-2.556,1.145-2.556,2.556v56.095
				c0,1.412,1.145,2.556,2.556,2.556h36.226c1.412,0,2.556-1.144,2.556-2.556v-56.095
				C471.728,232.155,470.583,231.01,469.171,231.01z"/>
			<g>
				<rect x="434.758" y="238.193" style="fill:#100844;" width="32.6" height="13.541"/>
				<g>
					<rect x="434.758" y="255.105" style="fill:#FC6840;" width="6.391" height="3.308"/>
					<rect x="443.495" y="255.105" style="fill:#FC6840;" width="6.391" height="3.308"/>
					<rect x="452.231" y="255.105" style="fill:#FC6840;" width="6.391" height="3.308"/>
					<rect x="460.968" y="255.105" style="fill:#FC6840;" width="6.391" height="3.308"/>
					<g>
						<rect x="434.758" y="261.289" style="fill:#FFC155;" width="6.391" height="6.391"/>
						<rect x="443.495" y="261.289" style="fill:#FFC155;" width="6.391" height="6.391"/>
						<rect x="452.231" y="261.289" style="fill:#FFC155;" width="6.391" height="6.391"/>
						<rect x="460.968" y="261.289" style="fill:#FFC155;" width="6.391" height="6.391"/>
					</g>
					<g>
						<rect x="434.758" y="270.557" style="fill:#FFC155;" width="6.391" height="6.391"/>
						<rect x="443.495" y="270.557" style="fill:#FFC155;" width="6.391" height="6.391"/>
						<rect x="452.231" y="270.557" style="fill:#FFC155;" width="6.391" height="6.391"/>
						<rect x="460.968" y="270.557" style="fill:#FC6840;" width="6.391" height="6.391"/>
					</g>
					<g>
						<rect x="434.758" y="279.824" style="fill:#FFC155;" width="6.391" height="6.391"/>
						<rect x="443.495" y="279.824" style="fill:#FFC155;" width="6.391" height="6.391"/>
						<rect x="452.231" y="279.824" style="fill:#FFC155;" width="6.391" height="6.391"/>
						<rect x="460.968" y="279.824" style="fill:#FC6840;" width="6.391" height="6.391"/>
					</g>
				</g>
				<g>
					<path style="fill:#FEFEFE;" d="M438.468,242.413c1.712,1.955,3.453,3.882,5.442,5.558c0.486,0.41,1.106-0.21,0.696-0.696
						c-1.677-1.989-3.602-3.729-5.558-5.442C438.65,241.484,438.12,242.014,438.468,242.413L438.468,242.413z"/>
				</g>
				<g>
					<path style="fill:#FEFEFE;" d="M444.401,242.313c2.029,2.179,3.977,4.49,6.267,6.4c0.36,0.3,0.815-0.153,0.514-0.514
						c-1.91-2.29-4.221-4.238-6.4-6.267C444.528,241.695,444.164,242.059,444.401,242.313L444.401,242.313z"/>
				</g>
				<g>
					<path style="fill:#FEFEFE;" d="M451.01,242.205c1.608,1.747,3.184,3.603,5.071,5.055c0.273,0.21,0.691-0.208,0.481-0.481
						c-1.452-1.887-3.308-3.463-5.055-5.071C451.174,241.4,450.703,241.871,451.01,242.205L451.01,242.205z"/>
				</g>
				<g>
					<path style="fill:#FEFEFE;" d="M458.31,243.571c0.931,1.032,1.819,2.027,2.932,2.865c0.284,0.214,0.711-0.212,0.497-0.497
						c-0.838-1.113-1.833-2.001-2.865-2.932C458.492,242.663,457.966,243.189,458.31,243.571L458.31,243.571z"/>
				</g>
			</g>
		</g>
		<g>
			<path style="fill:#3E4BAF;" d="M339.366,208.44c0,8.04-4.19,15.11-10.5,19.13c-3.52,2.24-7.69,3.54-12.17,3.54
				c-12.52,0-22.67-10.15-22.67-22.67c0-12.52,10.15-22.67,22.67-22.67c4.1,0,7.95,1.09,11.27,3c5.32,3.05,9.29,8.21,10.76,14.33
				C339.146,204.81,339.366,206.6,339.366,208.44z"/>
			<path style="fill:#FC6840;" d="M338.726,203.1l-22.03,5.34l11.27-19.67C333.286,191.82,337.256,196.98,338.726,203.1z"/>
			<path style="fill:#FFC155;" d="M339.366,208.44c0,8.04-4.19,15.11-10.5,19.13l-12.17-19.13l22.03-5.34
				C339.146,204.81,339.366,206.6,339.366,208.44z"/>
		</g>
		<g>
			<g>
				<path style="fill:#3E4BAF;" d="M209.31,101.554c10.947-9.166,21.893-18.333,32.84-27.499c-0.723-0.191-1.447-0.382-2.17-0.573
					c1.965,6.92,4.483,13.613,7.424,20.175c0.389,0.867,1.755,0.964,2.355,0.303c11.715-12.904,25.049-24.728,36.137-38.148
					c1.158-1.402-0.645-3.289-2.022-2.022c-12.774,11.763-24.605,25.163-36.235,38.05c0.785,0.101,1.57,0.202,2.355,0.303
					c-2.92-6.296-5.375-12.751-7.509-19.352c-0.314-0.97-1.421-1.22-2.17-0.573c-10.793,9.32-21.586,18.64-32.379,27.96
					C206.981,101.001,208.359,102.35,209.31,101.554L209.31,101.554z"/>
			</g>
			<g>
				<path style="fill:#3E4BAF;" d="M275.837,55.585c1.841-0.125,3.681-0.249,5.522-0.374c0.357-0.024,2.472-0.374,2.761-0.187
					c0.67,0.434,0.381,0.819,0.303,1.47c-0.355,2.945-0.457,6.188-0.476,9.147c-0.007,1.106,1.49,1.208,1.842,0.249
					c0.696-1.898,0.501-4.013,0.448-6.005c-0.026-1-0.054-2.003,0.025-3.002c0.059-0.747,0.488-1.897,0.249-2.665
					c-0.366-1.177-1.355-1.021-2.39-0.952c-2.763,0.183-5.525,0.499-8.283,0.748C274.844,54.105,274.821,55.654,275.837,55.585
					L275.837,55.585z"/>
			</g>
			<path style="fill:#FFC155;" d="M244.41,72.621c0,2.521-2.044,4.565-4.565,4.565s-4.565-2.044-4.565-4.565
				c0-2.521,2.044-4.565,4.565-4.565S244.41,70.099,244.41,72.621z"/>
			<path style="fill:#FC6840;" d="M253.54,93.177c0,2.521-2.044,4.565-4.565,4.565c-2.521,0-4.565-2.044-4.565-4.565
				c0-2.521,2.044-4.565,4.565-4.565C251.496,88.612,253.54,90.656,253.54,93.177z"/>
			<path style="fill:#100844;" d="M213.526,100.91c0,2.521-2.044,4.565-4.565,4.565c-2.521,0-4.565-2.044-4.565-4.565
				c0-2.521,2.044-4.565,4.565-4.565C211.482,96.344,213.526,98.388,213.526,100.91z"/>
		</g>
		<g>
			<path style="fill:#FFC155;" d="M170.35,151.281h-43.652c-3.235,0-5.857,2.623-5.857,5.857v30.79c0,3.235,2.622,5.857,5.857,5.857
				h22.698l13.03,13.03v-13.03h7.923c3.235,0,5.857-2.622,5.857-5.857v-30.79C176.207,153.904,173.584,151.281,170.35,151.281z"/>
			<g>
				<g>
					<path style="fill:#FC6840;" d="M134.785,171.545c-0.379-0.518-0.728-0.964-1.295-1.295c-2-1.165-4.682-0.094-5.302,2.157
						c-0.624,2.265,1.145,4.569,3.48,4.569c1.272,0,2.474-0.69,3.117-1.788C135.386,174.162,135.525,172.557,134.785,171.545
						L134.785,171.545z"/>
				</g>
				<g>
					<path style="fill:#FC6840;" d="M145.85,171.545c-0.379-0.518-0.728-0.964-1.295-1.295c-2-1.165-4.682-0.094-5.302,2.157
						c-0.624,2.265,1.145,4.569,3.48,4.569c1.272,0,2.474-0.69,3.117-1.788C146.451,174.162,146.59,172.557,145.85,171.545
						L145.85,171.545z"/>
				</g>
				<g>
					<path style="fill:#FC6840;" d="M156.915,171.545c-0.379-0.518-0.728-0.964-1.295-1.295c-2-1.165-4.682-0.094-5.302,2.157
						c-0.624,2.265,1.145,4.569,3.48,4.569c1.272,0,2.474-0.69,3.117-1.788C157.516,174.162,157.656,172.557,156.915,171.545
						L156.915,171.545z"/>
				</g>
				<g>
					<path style="fill:#FC6840;" d="M167.98,171.545c-0.379-0.518-0.728-0.964-1.295-1.295c-2-1.165-4.682-0.094-5.302,2.157
						c-0.624,2.265,1.145,4.569,3.48,4.569c1.272,0,2.474-0.69,3.117-1.788C168.581,174.162,168.721,172.557,167.98,171.545
						L167.98,171.545z"/>
				</g>
			</g>
		</g>
		<path style="fill:#484DCD;" d="M68.923,166.489l-0.145-1.676l-0.072,0.015c-0.789-5.064-3.162-9.786-6.811-13.436
			c-3.799-3.799-8.73-6.2-14.022-6.896l0.012-0.072l-1.65-0.106c-6.971-0.447-13.815,2.13-18.757,7.07
			c-0.001,0.001-0.003,0.002-0.004,0.003c-0.001,0.001-0.002,0.002-0.003,0.003c-1.966,1.966-3.553,4.212-4.725,6.641
			c-1.564,3.239-2.391,6.803-2.401,10.46c-0.003,0.914,0.046,1.834,0.147,2.757l0.186,1.697l0.071-0.017
			c0.88,4.848,3.225,9.371,6.731,12.876c3.646,3.646,8.365,6.021,13.429,6.817l-0.015,0.074l1.676,0.145
			c0.707,0.061,1.41,0.091,2.112,0.091c6.408,0,12.556-2.514,17.139-7.063c0.022-0.022,0.048-0.04,0.07-0.062
			c0.01-0.01,0.018-0.023,0.028-0.034c0.624-0.626,1.211-1.282,1.758-1.964c3.336-4.162,5.206-9.295,5.33-14.636
			C69.028,168.283,69,167.387,68.923,166.489z M65.771,165.494c-2.035,0.552-4.124,1.422-6.2,2.569
			c-1.46-2.286-3.269-4.597-5.389-6.842l6.603-6.603C63.454,157.692,65.184,161.471,65.771,165.494z M57,169.619
			c-2.154,1.438-4.252,3.148-6.202,5.098c-1.951,1.951-3.662,4.051-5.101,6.206c-2.121-1.365-4.241-3.031-6.274-4.944l12.639-12.638
			C54.042,165.447,55.687,167.567,57,169.619z M47.336,147.451c4.198,0.523,8.134,2.275,11.327,5.046l-6.6,6.6
			c-2.268-2.141-4.651-4.003-7.043-5.516C46.083,151.523,46.865,149.458,47.336,147.451z M49.947,161.213l-12.643,12.643
			c-1.933-2.055-3.548-4.125-4.845-6.131c1.901-1.333,3.747-2.874,5.464-4.591c2.188-2.188,4.073-4.546,5.599-6.956
			C45.617,157.507,47.792,159.186,49.947,161.213z M35.365,149.433c0.357-0.174,0.711-0.355,1.078-0.508
			c0.275-0.115,0.559-0.206,0.838-0.309c0.364-0.135,0.725-0.277,1.096-0.392c0.292-0.09,0.59-0.156,0.885-0.234
			c0.369-0.097,0.735-0.201,1.109-0.278c0.305-0.063,0.616-0.102,0.924-0.151c0.372-0.06,0.743-0.126,1.118-0.166
			c0.316-0.034,0.636-0.044,0.954-0.063c0.306-0.019,0.612-0.04,0.921-0.046c-0.413,1.55-1.061,3.159-1.887,4.774
			c-1.139-0.595-2.27-1.109-3.38-1.521c-1.351-0.501-2.627-0.833-3.829-1.023C35.249,149.488,35.307,149.461,35.365,149.433z
			 M29.593,153.514C29.593,153.513,29.594,153.513,29.593,153.514c0.003-0.003,0.005-0.004,0.006-0.006
			c0.766-0.763,1.956-1.147,3.452-1.147c2.116,0,4.846,0.774,7.848,2.316c-1.402,2.199-3.118,4.358-5.097,6.337
			c-1.541,1.541-3.187,2.921-4.876,4.123C28.141,159.87,27.71,155.401,29.593,153.514z M23.356,168.956
			c-0.011-0.632,0.002-1.262,0.046-1.887c0.007-0.099,0.017-0.197,0.026-0.296c0.054-0.643,0.131-1.282,0.242-1.914
			c0.009-0.053,0.022-0.105,0.032-0.157c0.118-0.64,0.264-1.273,0.439-1.898c0.01-0.036,0.018-0.073,0.028-0.109
			c0.179-0.623,0.392-1.236,0.628-1.839c0.032-0.082,0.062-0.165,0.095-0.247c0.215-0.531,0.46-1.05,0.717-1.564
			c0.361,2.365,1.326,5.001,2.797,7.728c-1.686,0.99-3.386,1.791-5.045,2.352C23.359,169.068,23.357,169.012,23.356,168.956z
			 M23.661,172.159c2.062-0.635,4.177-1.583,6.266-2.81c1.435,2.216,3.202,4.453,5.255,6.628l-6.601,6.601
			C25.989,179.604,24.312,176.047,23.661,172.159z M41.575,189.688c-4.022-0.593-7.798-2.325-10.869-4.992l6.591-6.591
			c2.245,2.12,4.558,3.931,6.844,5.391C42.995,185.571,42.127,187.656,41.575,189.688z M52.903,188.285
			c-0.071,0.03-0.143,0.056-0.214,0.085c-0.595,0.241-1.198,0.461-1.813,0.647c-0.002,0.001-0.005,0.001-0.007,0.002
			c-0.621,0.188-1.252,0.342-1.889,0.473c-0.062,0.013-0.124,0.028-0.186,0.04c-0.611,0.12-1.229,0.208-1.85,0.275
			c-0.093,0.01-0.186,0.021-0.278,0.029c-0.611,0.057-1.227,0.087-1.846,0.091c-0.071,0-0.143-0.001-0.214-0.001
			c0.486-1.614,1.199-3.272,2.107-4.925c2.648,1.405,5.202,2.311,7.503,2.666C53.781,187.883,53.348,188.099,52.903,188.285z
			 M59.796,183.653c-0.01,0.01-0.019,0.022-0.029,0.032c-0.009,0.01-0.02,0.017-0.03,0.027c-1.526,1.488-4.563,1.54-8.35,0.134
			c-1.015-0.377-2.052-0.85-3.099-1.399c1.309-1.938,2.858-3.836,4.631-5.61c1.771-1.771,3.666-3.318,5.601-4.626
			C61.22,177.388,61.63,181.769,59.796,183.653z M65.922,170.52c-0.009,0.096-0.02,0.192-0.03,0.287
			c-0.065,0.624-0.151,1.245-0.27,1.858c-0.011,0.056-0.025,0.111-0.036,0.167c-0.126,0.624-0.277,1.242-0.458,1.85
			c-0.008,0.028-0.015,0.057-0.023,0.085c-0.183,0.608-0.4,1.205-0.636,1.794c-0.032,0.079-0.061,0.158-0.093,0.236
			c-0.188,0.451-0.405,0.89-0.623,1.327c-0.355-2.297-1.277-4.85-2.678-7.492c1.655-0.91,3.315-1.624,4.932-2.111
			c0,0.053,0.001,0.105,0.001,0.158C66.004,169.298,65.977,169.911,65.922,170.52z"/>
		<g>
			<path style="fill:#FFC155;" d="M341.039,47.771l-1.633-2.96c-1.078-1.955-3.134-3.169-5.367-3.169h-12.914
				c-3.385,0-6.129,2.744-6.129,6.129h-2.254h-1.769c-1.136,0-2.085,0.866-2.188,1.998l-4.332,43.205h58.862l5.363-42.759
				c0.148-1.303-0.871-2.444-2.183-2.444H341.039z"/>
			<path style="fill:#FC6840;" d="M336.525,51.215l-1.633-2.96c-1.078-1.955-3.134-3.169-5.366-3.169h-12.914
				c-3.385,0-6.129,2.744-6.129,6.129l0,0h-3.832c-1.213,0-2.197,0.983-2.197,2.197v39.563h58.862V53.411
				c0-1.213-0.983-2.197-2.197-2.197H336.525z"/>
		</g>
	</g>
</g>
</svg>
